<svg width="1708" height="471" viewBox="0 0 1708 471" fill="none" xmlns="http://www.w3.org/2000/svg">
  <path fill-rule="evenodd" clip-rule="evenodd" d="M235.5 471C365.563 471 471 365.563 471 235.5C471 105.437 365.563 0 235.5 0C105.437 0 0 105.437 0 235.5C0 365.563 105.437 471 235.5 471ZM155.587 281.035C155.638 282.865 155.67 284 155.67 284C155.67 283.673 155.703 283.306 155.766 282.905C157.198 296.824 161.246 313.052 172.534 324.273C185.351 337.014 197.965 346.327 208.166 353.858L208.167 353.858C212.951 357.39 217.205 360.53 220.699 363.449C224.361 366.614 228.255 369.78 232.148 372.945L232.149 372.946C238.963 378.486 245.777 384.026 251.35 389.566C260.107 398.271 272.805 420.906 272.805 427C272.805 427 273.243 399.142 272.805 390.001C272.368 378.248 270.616 366.496 255.729 350.39C244.024 338.126 232.777 329.042 213.071 313.127L213.071 313.127C205.5 307.012 196.681 299.89 186.108 291.192C168.156 276.392 163.777 267.686 163.777 267.686C163.382 266.901 162.995 266.01 162.617 265.041C163.029 264.041 163.396 263.108 163.695 262.273C168.042 249.236 176.736 240.98 193.691 227.075C194.708 226.26 195.711 225.456 196.701 224.663C205.074 231.598 212.997 237.469 219.98 242.644L219.98 242.645L219.981 242.645C225.738 246.911 230.856 250.705 235.062 254.23C239.469 258.054 244.154 261.878 248.84 265.702L248.84 265.703C257.04 272.395 265.24 279.087 271.947 285.779C282.485 296.296 297.766 323.639 297.766 331C297.766 331 298.293 297.347 297.766 286.305C297.239 272.108 295.131 257.911 277.216 238.455C264.949 225.552 252.89 215.772 234.346 200.73L234.34 200.726C233.09 199.712 231.811 198.674 230.5 197.61C252.915 179.536 265.499 168.665 279.332 153.636C298.025 133.647 301.937 106.271 302.807 91.4964C303.242 79.7636 302.807 45 302.807 45C302.807 52.8218 294.982 76.2873 279.332 99.7527C273.245 108.878 253.248 127.564 240.641 138.427C236.836 141.74 232.095 145.642 226.722 150.064C218.876 156.521 209.682 164.087 200.084 172.551C197.932 170.744 195.717 168.877 193.435 166.944C175.202 151.855 172.733 146.505 168.922 138.249C168.217 136.722 167.467 135.096 166.562 133.291C161.293 122.775 156.024 111.207 156.024 107V129.61C156.024 130.474 156.019 131.416 156.013 132.428C155.931 147.671 155.763 178.845 171.567 200.442C155 221.174 155 240.958 155 254.885C155 255.792 155.017 257.157 155.046 258.811C155.029 259.349 155.02 259.845 155.02 260.286C155.02 261 155.016 261.778 155.011 262.613L155.011 262.619C154.986 267.301 154.95 273.799 155.587 281.035Z" fill="#44BD32"></path>
  <path d="M747.36 276.16H635.36L613.28 328H570.4L671.2 104H712.16L813.28 328H769.76L747.36 276.16ZM733.6 243.52L691.36 145.6L649.44 243.52H733.6ZM1000.24 157.12V328H962.163V306.24C955.763 313.92 947.763 319.893 938.163 324.16C928.563 328.213 918.216 330.24 907.123 330.24C884.296 330.24 866.269 323.947 853.043 311.36C840.029 298.56 833.523 279.68 833.523 254.72V157.12H873.523V249.28C873.523 264.64 876.936 276.16 883.763 283.84C890.803 291.307 900.723 295.04 913.523 295.04C927.816 295.04 939.123 290.667 947.443 281.92C955.976 272.96 960.243 260.16 960.243 243.52V157.12H1000.24ZM1161.42 328L1117.58 268.8L1073.41 328H1029.26L1095.82 241.28L1032.14 157.12H1076.62L1118.54 213.12L1160.46 157.12H1203.66L1139.66 240.64L1206.54 328H1161.42ZM1236.05 157.12H1276.05V328H1236.05V157.12ZM1256.21 128.96C1248.96 128.96 1242.88 126.72 1237.97 122.24C1233.07 117.547 1230.61 111.787 1230.61 104.96C1230.61 98.1333 1233.07 92.48 1237.97 88C1242.88 83.3067 1248.96 80.96 1256.21 80.96C1263.47 80.96 1269.55 83.2 1274.45 87.68C1279.36 91.9467 1281.81 97.3867 1281.81 104C1281.81 111.04 1279.36 117.013 1274.45 121.92C1269.76 126.613 1263.68 128.96 1256.21 128.96ZM1328.55 90.56H1368.55V328H1328.55V90.56ZM1421.05 157.12H1461.05V328H1421.05V157.12ZM1441.21 128.96C1433.96 128.96 1427.88 126.72 1422.97 122.24C1418.07 117.547 1415.61 111.787 1415.61 104.96C1415.61 98.1333 1418.07 92.48 1422.97 88C1427.88 83.3067 1433.96 80.96 1441.21 80.96C1448.47 80.96 1454.55 83.2 1459.45 87.68C1464.36 91.9467 1466.81 97.3867 1466.81 104C1466.81 111.04 1464.36 117.013 1459.45 121.92C1454.76 126.613 1448.68 128.96 1441.21 128.96ZM1610.51 155.2C1632.06 155.2 1649.34 161.493 1662.35 174.08C1675.37 186.667 1681.87 205.333 1681.87 230.08V328H1641.87V235.2C1641.87 220.267 1638.35 209.067 1631.31 201.6C1624.27 193.92 1614.25 190.08 1601.23 190.08C1586.51 190.08 1574.89 194.56 1566.35 203.52C1557.82 212.267 1553.55 224.96 1553.55 241.6V328H1513.55V157.12H1551.63V179.2C1558.25 171.307 1566.57 165.333 1576.59 161.28C1586.62 157.227 1597.93 155.2 1610.51 155.2Z" fill="#332E2E"></path>
</svg>